<svg width="22" height="23" viewBox="0 0 22 23" fill="none" xmlns="http://www.w3.org/2000/svg">
<path d="M15.6168 0H6.39419C2.38819 0 0 2.38819 0 6.39419V15.6058C0 19.6228 2.38819 22.011 6.39419 22.011H15.6058C19.6118 22.011 22 19.6228 22 15.6168V6.39419C22.011 2.38819 19.6228 0 15.6168 0ZM11.0055 15.2756C8.65031 15.2756 6.73536 13.3607 6.73536 11.0055C6.73536 8.65031 8.65031 6.73536 11.0055 6.73536C13.3607 6.73536 15.2756 8.65031 15.2756 11.0055C15.2756 13.3607 13.3607 15.2756 11.0055 15.2756ZM17.5207 5.37068C17.4657 5.50274 17.3887 5.6238 17.2896 5.73386C17.1796 5.83291 17.0585 5.90994 16.9264 5.96497C16.7944 6.02 16.6513 6.05302 16.5082 6.05302C16.2111 6.05302 15.9359 5.94296 15.7268 5.73386C15.6278 5.6238 15.5507 5.50274 15.4957 5.37068C15.4407 5.23861 15.4077 5.09554 15.4077 4.95247C15.4077 4.8094 15.4407 4.66633 15.4957 4.53426C15.5507 4.39119 15.6278 4.28113 15.7268 4.17108C15.98 3.91795 16.3652 3.79689 16.7173 3.87393C16.7944 3.88494 16.8604 3.90695 16.9264 3.93996C16.9925 3.96197 17.0585 3.99499 17.1245 4.03901C17.1796 4.07203 17.2346 4.12706 17.2896 4.17108C17.3887 4.28113 17.4657 4.39119 17.5207 4.53426C17.5758 4.66633 17.6088 4.8094 17.6088 4.95247C17.6088 5.09554 17.5758 5.23861 17.5207 5.37068Z" fill="white"/>
</svg>
